<svg width="32" height="28" viewBox="0 0 32 28" fill="none" xmlns="http://www.w3.org/2000/svg">
<path d="M27.9514 7.58836V8.4469C27.9514 17.0924 21.7568 27 10.4216 27C7.07536 27.0076 3.80016 25.978 1 24.038C1.48631 24.1079 1.97684 24.1395 2.46757 24.1324C5.24136 24.1405 7.93715 23.1608 10.1216 21.3508C8.83298 21.3307 7.58311 20.881 6.54964 20.0656C5.51618 19.2503 4.7517 18.1108 4.36486 16.8091C4.74871 16.8952 5.14006 16.9384 5.53243 16.9379C6.08035 16.938 6.62579 16.86 7.15405 16.7061C5.75831 16.4114 4.50263 15.6124 3.60189 14.4456C2.70114 13.2789 2.21131 11.8169 2.21622 10.3099V10.2241C3.07016 10.7292 4.02754 11.0062 5.00541 11.0311C3.70373 10.1241 2.77825 8.72505 2.41808 7.11978C2.05791 5.5145 2.29023 3.82418 3.06757 2.39419C4.61643 4.41133 6.54885 6.06073 8.73923 7.23518C10.9296 8.40963 13.3289 9.08282 15.7811 9.211C15.6597 8.72372 15.6024 8.22102 15.6108 7.71714C15.5652 6.38547 15.9082 5.07125 16.5933 3.95344C17.2783 2.83563 18.2721 1.96854 19.4393 1.47025C20.6065 0.971955 21.8903 0.866669 23.116 1.16873C24.3417 1.47078 25.4497 2.1655 26.2892 3.1583C27.669 2.86344 28.9926 2.32662 30.2054 1.57C29.7455 3.10795 28.7671 4.41288 27.4568 5.23596C28.6808 5.05737 29.8741 4.69305 31 4.1542C30.184 5.4812 29.1518 6.64401 27.9514 7.58836V7.58836Z" stroke="black" stroke-linecap="round" stroke-linejoin="round"/>
</svg>
