<svg width="70" height="70" viewBox="0 0 70 70" fill="none" xmlns="http://www.w3.org/2000/svg">
<g clip-path="url(#clip0_179_261)">
<path d="M62.2222 11.6666H7.7778C6.74641 11.6666 5.75725 12.0763 5.02795 12.8057C4.29864 13.535 3.88892 14.5241 3.88892 15.5555V54.4444C3.88892 55.4758 4.29864 56.465 5.02795 57.1943C5.75725 57.9236 6.74641 58.3333 7.7778 58.3333H62.2222C63.2536 58.3333 64.2428 57.9236 64.9721 57.1943C65.7014 56.465 66.1111 55.4758 66.1111 54.4444V15.5555C66.1111 14.5241 65.7014 13.535 64.9721 12.8057C64.2428 12.0763 63.2536 11.6666 62.2222 11.6666ZM59.2278 54.4444H11.0056L24.6167 40.3666L21.8167 37.6638L7.7778 52.1888V18.5111L31.9473 42.5638C32.6759 43.2882 33.6615 43.6947 34.6889 43.6947C35.7163 43.6947 36.702 43.2882 37.4306 42.5638L62.2222 17.9083V51.9361L47.9111 37.625L45.1695 40.3666L59.2278 54.4444ZM10.325 15.5555H59.0722L34.6889 39.8027L10.325 15.5555Z" fill="white"/>
</g>
<defs>
<clipPath id="clip0_179_261">
<rect width="70" height="70" fill="white"/>
</clipPath>
</defs>
</svg>
