<svg width="23" height="22" viewBox="0 0 23 22" fill="none" xmlns="http://www.w3.org/2000/svg">
<path d="M21.3571 3.564V15.7143C21.3571 16.9646 20.8379 18.1637 19.9136 19.0478C18.9893 19.9319 17.7357 20.4286 16.4286 20.4286H3.726C4.01437 20.9063 4.42914 21.3031 4.92862 21.5789C5.42809 21.8548 5.99468 22 6.57143 22H16.4286C18.1714 22 19.8429 21.3378 21.0753 20.159C22.3077 18.9802 23 17.3814 23 15.7143V6.28571C23 5.73404 22.8482 5.19209 22.5598 4.71433C22.2714 4.23657 21.8566 3.83984 21.3571 3.564ZM13.9643 10.2143C14.1821 10.2143 14.3911 10.1315 14.5451 9.98416C14.6992 9.83681 14.7857 9.63696 14.7857 9.42857C14.7857 9.22019 14.6992 9.02034 14.5451 8.87299C14.3911 8.72564 14.1821 8.64286 13.9643 8.64286H10.6786V5.5C10.6786 5.29162 10.592 5.09177 10.438 4.94442C10.2839 4.79707 10.075 4.71429 9.85714 4.71429C9.63929 4.71429 9.43035 4.79707 9.27631 4.94442C9.12226 5.09177 9.03571 5.29162 9.03571 5.5V8.64286H5.75C5.53214 8.64286 5.32321 8.72564 5.16916 8.87299C5.01511 9.02034 4.92857 9.22019 4.92857 9.42857C4.92857 9.63696 5.01511 9.83681 5.16916 9.98416C5.32321 10.1315 5.53214 10.2143 5.75 10.2143H9.03571V13.3571C9.03571 13.5655 9.12226 13.7654 9.27631 13.9127C9.43035 14.0601 9.63929 14.1429 9.85714 14.1429C10.075 14.1429 10.2839 14.0601 10.438 13.9127C10.592 13.7654 10.6786 13.5655 10.6786 13.3571V10.2143H13.9643ZM16.4286 0C17.3 0 18.1357 0.331121 18.7519 0.920521C19.3681 1.50992 19.7143 2.30932 19.7143 3.14286V15.7143C19.7143 16.5478 19.3681 17.3472 18.7519 17.9366C18.1357 18.526 17.3 18.8571 16.4286 18.8571H3.28571C2.41429 18.8571 1.57855 18.526 0.962363 17.9366C0.346172 17.3472 0 16.5478 0 15.7143V3.14286C0 2.30932 0.346172 1.50992 0.962363 0.920521C1.57855 0.331121 2.41429 0 3.28571 0H16.4286ZM18.0714 3.14286C18.0714 2.72609 17.8983 2.32639 17.5902 2.03169C17.2822 1.73699 16.8643 1.57143 16.4286 1.57143H3.28571C2.85 1.57143 2.43213 1.73699 2.12404 2.03169C1.81594 2.32639 1.64286 2.72609 1.64286 3.14286V15.7143C1.64286 16.1311 1.81594 16.5308 2.12404 16.8255C2.43213 17.1202 2.85 17.2857 3.28571 17.2857H16.4286C16.8643 17.2857 17.2822 17.1202 17.5902 16.8255C17.8983 16.5308 18.0714 16.1311 18.0714 15.7143V3.14286Z" fill="black"/>
</svg>
