<svg width="23" height="22" viewBox="0 0 23 22" fill="none" xmlns="http://www.w3.org/2000/svg">
<path d="M5.46792 1.37501C5.43811 1.37474 5.4087 1.38158 5.38234 1.3949C5.35598 1.40822 5.3335 1.4276 5.31693 1.4513C5.30035 1.475 5.2902 1.50227 5.28738 1.53066C5.28457 1.55905 5.28919 1.58766 5.30081 1.61391L5.40413 1.84723L7.23245 5.92497C7.24488 5.9527 7.26472 5.97682 7.28998 5.9949C7.31524 6.01297 7.34503 6.02437 7.37635 6.02794C7.40767 6.03151 7.43943 6.02713 7.46842 6.01524C7.49742 6.00335 7.52263 5.98437 7.54152 5.9602L10.916 1.65001C10.9361 1.62447 10.9483 1.59411 10.9513 1.56232C10.9543 1.53053 10.9479 1.49857 10.933 1.47002C10.9181 1.44147 10.8952 1.41746 10.8668 1.40068C10.8384 1.3839 10.8057 1.37501 10.7723 1.37501H5.46792ZM18.8641 2.49477L17.0097 6.63567C16.998 6.66181 16.9933 6.69031 16.996 6.71862C16.9987 6.74693 17.0087 6.77416 17.025 6.79788C17.0414 6.82159 17.0637 6.84105 17.0899 6.85451C17.116 6.86797 17.1453 6.87501 17.175 6.87501H21.7121C21.7442 6.87502 21.7756 6.86684 21.8032 6.85132C21.8309 6.83579 21.8536 6.81348 21.8692 6.78671C21.8848 6.75993 21.8926 6.72965 21.8918 6.69902C21.8911 6.66838 21.8818 6.6385 21.8649 6.61247L19.1817 2.472C19.1643 2.44534 19.1397 2.42374 19.1104 2.40953C19.0812 2.39532 19.0484 2.38904 19.0157 2.39139C18.9829 2.39374 18.9515 2.40461 18.9248 2.42284C18.8981 2.44106 18.8771 2.46594 18.8641 2.49477ZM3.81839 2.47372L1.13611 6.61247C1.11921 6.6385 1.10989 6.66838 1.10913 6.69902C1.10836 6.72965 1.11617 6.75993 1.13175 6.78671C1.14733 6.81348 1.1701 6.83579 1.19773 6.85132C1.22535 6.86684 1.2568 6.87502 1.28884 6.87501H5.82595C5.85569 6.87497 5.88495 6.86788 5.91111 6.85437C5.93728 6.84086 5.95953 6.82134 5.97587 6.79758C5.99221 6.77382 6.00212 6.74655 6.00473 6.71821C6.00734 6.68988 6.00256 6.66137 5.99081 6.63524L4.13285 2.49649C4.11956 2.46838 4.0986 2.4442 4.07218 2.42651C4.04576 2.40881 4.01484 2.39824 3.98268 2.39591C3.95052 2.39358 3.91829 2.39958 3.88938 2.41327C3.86048 2.42696 3.83595 2.44784 3.81839 2.47372ZM17.6665 1.37501H12.031C12.0147 1.37491 11.9988 1.37916 11.9849 1.38729C11.9711 1.39541 11.9598 1.40709 11.9525 1.42099C11.9453 1.43489 11.9422 1.45047 11.9437 1.46596C11.9451 1.48145 11.9511 1.49623 11.9609 1.50864L15.5511 6.08309C15.5603 6.09484 15.5725 6.10407 15.5866 6.10986C15.6007 6.11564 15.6161 6.11776 15.6313 6.11602C15.6465 6.11428 15.661 6.10873 15.6732 6.09993C15.6855 6.09113 15.6951 6.07939 15.7011 6.06591L17.5914 1.84766L17.7442 1.4893C17.7496 1.477 17.7517 1.46364 17.7505 1.45035C17.7493 1.43707 17.7448 1.42426 17.7373 1.41302C17.7298 1.40179 17.7195 1.39246 17.7074 1.38584C17.6953 1.37922 17.6817 1.3755 17.6678 1.37501H17.6665ZM10.7364 19.25L6.719 8.35786C6.7072 8.32623 6.68545 8.29887 6.65673 8.27956C6.62801 8.26025 6.59373 8.24992 6.55863 8.25001H1.15453C1.12322 8.24992 1.09252 8.25825 1.06592 8.27404C1.03932 8.28983 1.0179 8.31245 1.00408 8.33932C0.990272 8.3662 0.984628 8.39624 0.987797 8.42603C0.990965 8.45582 1.00282 8.48416 1.02201 8.50782L10.7251 20.5309C10.758 20.5716 10.8048 20.5998 10.8574 20.6106C10.9099 20.6214 10.9648 20.614 11.0122 20.5898C11.0599 20.5658 11.0969 20.5262 11.1166 20.4782C11.1363 20.4303 11.1374 20.3771 11.1195 20.3285L10.7364 19.25ZM21.8455 8.25001H16.4414C16.4065 8.25 16.3725 8.26037 16.344 8.2797C16.3155 8.29902 16.294 8.32633 16.2824 8.35786L11.8711 20.31C11.8526 20.3602 11.8533 20.4151 11.8732 20.4648C11.8932 20.5144 11.9309 20.5557 11.9798 20.5812C12.0287 20.6065 12.0853 20.6144 12.1397 20.6034C12.1941 20.5925 12.2427 20.5634 12.2767 20.5215L21.9781 8.50782C21.9972 8.48416 22.0091 8.45582 22.0123 8.42603C22.0154 8.39624 22.0098 8.3662 21.996 8.33932C21.9822 8.31245 21.9607 8.28983 21.9341 8.27404C21.9075 8.25825 21.8768 8.24992 21.8455 8.25001ZM11.6438 3.39153L14.1594 6.60001C14.1794 6.62554 14.1916 6.65591 14.1946 6.6877C14.1976 6.71949 14.1913 6.75145 14.1764 6.78C14.1615 6.80855 14.1385 6.83256 14.1101 6.84934C14.0817 6.86612 14.049 6.87501 14.0157 6.87501H8.98441C8.95104 6.87501 8.91833 6.86612 8.88994 6.84934C8.86155 6.83256 8.83861 6.80855 8.82369 6.78C8.80877 6.75145 8.80245 6.71949 8.80545 6.6877C8.80844 6.65591 8.82064 6.62554 8.84066 6.60001L11.3563 3.39153C11.373 3.37018 11.3947 3.35286 11.4197 3.34093C11.4446 3.32899 11.4721 3.32278 11.5 3.32278C11.5279 3.32278 11.5554 3.32899 11.5804 3.34093C11.6053 3.35286 11.627 3.37018 11.6438 3.39153ZM11.3293 16.7252L8.28812 8.47903C8.27857 8.45312 8.27565 8.42539 8.27961 8.39818C8.28357 8.37097 8.2943 8.34506 8.31088 8.32263C8.32747 8.3002 8.34944 8.2819 8.37494 8.26926C8.40045 8.25663 8.42875 8.25002 8.45747 8.25001H14.5426C14.5713 8.25002 14.5996 8.25663 14.6251 8.26926C14.6506 8.2819 14.6726 8.3002 14.6892 8.32263C14.7058 8.34506 14.7165 8.37097 14.7205 8.39818C14.7244 8.42539 14.7215 8.45312 14.7119 8.47903L11.6694 16.7252C11.657 16.7586 11.634 16.7876 11.6037 16.8081C11.5734 16.8286 11.5372 16.8396 11.5 16.8396C11.4629 16.8396 11.4267 16.8286 11.3964 16.8081C11.366 16.7876 11.3431 16.7586 11.3307 16.7252H11.3293Z" fill="black"/>
</svg>
