<svg width="24" height="24" viewBox="0 0 24 24" fill="none" xmlns="http://www.w3.org/2000/svg">
<path d="M12 1.16797C5.9247 1.16797 1 5.99648 1 11.9531C1 17.9098 5.9247 22.7383 12 22.7383C18.0753 22.7383 23 17.9098 23 11.9531C23 5.99648 18.0753 1.16797 12 1.16797Z" stroke="black" stroke-width="1.5" stroke-linecap="round" stroke-linejoin="round"/>
<path d="M3.49805 18.7974C3.49805 18.7974 5.94995 15.728 11.9999 15.728C18.0499 15.728 20.5029 18.7974 20.5029 18.7974M11.9999 11.9531C12.8752 11.9531 13.7145 11.6123 14.3334 11.0055C14.9523 10.3987 15.2999 9.57572 15.2999 8.7176C15.2999 7.85948 14.9523 7.03651 14.3334 6.42973C13.7145 5.82294 12.8752 5.48206 11.9999 5.48206C11.1247 5.48206 10.2854 5.82294 9.66649 6.42973C9.04762 7.03651 8.69995 7.85948 8.69995 8.7176C8.69995 9.57572 9.04762 10.3987 9.66649 11.0055C10.2854 11.6123 11.1247 11.9531 11.9999 11.9531V11.9531Z" stroke="black" stroke-width="1.5" stroke-linecap="round" stroke-linejoin="round"/>
</svg>
