<svg width="24" height="22" viewBox="0 0 24 22" fill="none" xmlns="http://www.w3.org/2000/svg">
<path d="M18.0071 13.6292C17.6312 12.2413 16.8184 11.0174 15.6936 10.1452C14.5687 9.27294 13.1939 8.8006 11.7801 8.8006C10.3662 8.8006 8.99141 9.27294 7.86657 10.1452C6.74172 11.0174 5.92897 12.2413 5.55299 13.6292L4.65702 16.9365C4.49615 17.5304 4.47215 18.154 4.58689 18.7588C4.70163 19.3637 4.95201 19.9333 5.3185 20.4234C5.685 20.9135 6.1577 21.3108 6.69977 21.5842C7.24183 21.8577 7.8386 22 8.44354 22H15.1166C15.7215 22 16.3183 21.8577 16.8604 21.5842C17.4024 21.3108 17.8751 20.9135 18.2416 20.4234C18.6081 19.9333 18.8585 19.3637 18.9732 18.7588C19.088 18.154 19.064 17.5304 18.9031 16.9365L18.0071 13.6292ZM16.9917 19.4539C16.7727 19.7491 16.4893 19.9882 16.1638 20.1524C15.8384 20.3167 15.4798 20.4015 15.1166 20.4001H8.44354C8.08057 20.4001 7.7225 20.3147 7.39726 20.1506C7.07201 19.9865 6.78838 19.7482 6.56848 19.4541C6.34858 19.1601 6.19835 18.8183 6.12951 18.4554C6.06067 18.0925 6.07507 17.7183 6.1716 17.362L7.06757 14.0547C7.35211 13.0044 7.96718 12.0781 8.81843 11.4181C9.66969 10.758 10.7101 10.4005 11.7801 10.4005C12.85 10.4005 13.8904 10.758 14.7417 11.4181C15.593 12.0781 16.208 13.0044 16.4926 14.0547L17.3885 17.362C17.4865 17.7181 17.5016 18.0926 17.4327 18.4558C17.3638 18.8189 17.2128 19.1607 16.9917 19.4541V19.4539ZM6.38401 9.91607C6.5207 9.04611 6.33942 8.11481 5.87337 7.29305C5.40731 6.47129 4.70578 5.84577 3.89774 5.53133C3.03241 5.1948 2.14979 5.24839 1.41162 5.68217C-0.0558195 6.54493 -0.441989 8.67128 0.550955 10.4222C1.01686 11.244 1.71845 11.8696 2.52648 12.1839C2.88443 12.326 3.2649 12.4 3.64905 12.4025C4.12765 12.4042 4.59815 12.2767 5.0126 12.033C5.75032 11.5992 6.23739 10.8474 6.38401 9.91607ZM4.83245 9.66318C4.76224 10.1096 4.54718 10.4591 4.22691 10.6474C3.90663 10.8357 3.50185 10.8505 3.08696 10.6893C2.61496 10.5057 2.19752 10.1268 1.91146 9.62224C1.36154 8.65228 1.49225 7.48234 2.19722 7.06776C2.37444 6.96535 2.57515 6.91259 2.77891 6.91487C2.97004 6.91688 3.1592 6.95444 3.33707 7.02571C3.80907 7.20935 4.22651 7.58828 4.51257 8.09281C4.79862 8.59733 4.91219 9.15516 4.83245 9.66318ZM6.55418 6.60158C7.11206 7.05571 7.74913 7.2922 8.39336 7.29215C8.58634 7.29209 8.77874 7.27095 8.96729 7.2291C10.6231 6.86257 11.627 4.95706 11.2053 2.9814C11.0074 2.05415 10.5263 1.24063 9.85069 0.69061C9.12721 0.101638 8.27022 -0.121301 7.43759 0.0630903C5.78185 0.429573 4.7779 2.33508 5.19962 4.31074C5.39754 5.23804 5.87862 6.05156 6.55418 6.60158ZM7.77127 1.62652C7.84762 1.60975 7.92551 1.60137 8.00361 1.60152C8.29565 1.60152 8.59605 1.71786 8.86958 1.94055C9.2642 2.26179 9.54843 2.75221 9.66991 3.32154C9.90362 4.41623 9.42902 5.48983 8.63356 5.66592C8.27214 5.74592 7.88209 5.63453 7.53535 5.35219C7.14073 5.0309 6.85649 4.54048 6.73502 3.9712C6.50126 2.87621 6.97585 1.80261 7.77127 1.62652ZM22.1485 5.68217C21.4106 5.24839 20.5276 5.1948 19.6624 5.53133C18.8544 5.84567 18.1528 6.47129 17.6869 7.29305C17.221 8.11481 17.0396 9.04631 17.1762 9.91607C17.3226 10.8474 17.8096 11.5992 18.5476 12.033C18.9621 12.2768 19.4326 12.4042 19.9112 12.4025C20.2953 12.4 20.6758 12.326 21.0338 12.1839C21.8418 11.8696 22.5434 11.244 23.0093 10.4222C24.0021 8.67128 23.616 6.54493 22.1485 5.68217ZM21.6487 9.62224C21.3626 10.1268 20.9452 10.5057 20.4732 10.6893C20.0585 10.8507 19.6536 10.8358 19.3333 10.6474C19.013 10.459 18.7981 10.1096 18.7278 9.66318C18.6479 9.15516 18.7615 8.59754 19.0476 8.09326C19.3337 7.58898 19.7511 7.2098 20.2231 7.02616C20.4009 6.95483 20.5901 6.9172 20.7812 6.91511C20.985 6.91284 21.1857 6.9656 21.3629 7.06801C22.0679 7.48224 22.1987 8.65203 21.6487 9.62224ZM14.5928 7.2291C14.7814 7.27095 14.9738 7.29209 15.1668 7.29215C15.811 7.29215 16.4483 7.05571 17.0059 6.60158C17.6815 6.05161 18.1626 5.23804 18.3605 4.31079C18.7822 2.33513 17.7783 0.429623 16.1225 0.0631402C15.29 -0.121151 14.4329 0.101638 13.7094 0.69066C13.0338 1.24063 12.5528 2.0542 12.3549 2.9814C11.9331 4.95706 12.9371 6.86257 14.5928 7.2291ZM13.8902 3.32129C14.0117 2.75196 14.2959 2.26134 14.6906 1.9403C14.9641 1.71761 15.2645 1.60127 15.5565 1.60127C15.6346 1.60112 15.7125 1.6095 15.7889 1.62627C16.5843 1.80236 17.0589 2.87621 16.8252 3.97066C16.7036 4.53998 16.4194 5.0306 16.0249 5.35169C15.6782 5.63398 15.2884 5.74537 14.9267 5.66542C14.1311 5.48958 13.6565 4.41583 13.8902 3.32129Z" fill="black"/>
</svg>
