<svg width="45" height="45" viewBox="0 0 45 45" fill="none" xmlns="http://www.w3.org/2000/svg">
<path d="M22.5 14.7656C20.9703 14.7656 19.4749 15.2192 18.203 16.0691C16.9311 16.919 15.9398 18.1269 15.3544 19.5402C14.769 20.9535 14.6158 22.5086 14.9142 24.0089C15.2127 25.5092 15.9493 26.8874 17.031 27.969C18.1126 29.0507 19.4908 29.7873 20.9911 30.0858C22.4914 30.3842 24.0465 30.231 25.4598 29.6456C26.8731 29.0602 28.081 28.0689 28.9309 26.797C29.7808 25.5251 30.2344 24.0297 30.2344 22.5C30.2344 20.4487 29.4195 18.4814 27.969 17.031C26.5186 15.5805 24.5513 14.7656 22.5 14.7656ZM22.5 28.8281C21.2484 28.8281 20.0249 28.457 18.9843 27.7616C17.9436 27.0663 17.1325 26.078 16.6536 24.9217C16.1746 23.7654 16.0493 22.493 16.2935 21.2654C16.5376 20.0379 17.1403 18.9103 18.0253 18.0253C18.9103 17.1403 20.0379 16.5376 21.2654 16.2935C22.493 16.0493 23.7654 16.1746 24.9217 16.6536C26.078 17.1325 27.0663 17.9436 27.7616 18.9843C28.457 20.0249 28.8281 21.2484 28.8281 22.5C28.8281 24.1783 28.1614 25.7879 26.9747 26.9747C25.7879 28.1614 24.1783 28.8281 22.5 28.8281ZM30.2344 5.625H14.7656C12.3414 5.625 10.0164 6.58803 8.30223 8.30223C6.58803 10.0164 5.625 12.3414 5.625 14.7656V30.2344C5.625 31.4347 5.86143 32.6233 6.32079 33.7323C6.78015 34.8413 7.45344 35.849 8.30223 36.6978C10.0164 38.412 12.3414 39.375 14.7656 39.375H30.2344C31.4347 39.375 32.6233 39.1386 33.7323 38.6792C34.8413 38.2199 35.849 37.5466 36.6978 36.6978C37.5466 35.849 38.2199 34.8413 38.6792 33.7323C39.1386 32.6233 39.375 31.4347 39.375 30.2344V14.7656C39.375 13.5653 39.1386 12.3767 38.6792 11.2677C38.2199 10.1587 37.5466 9.15101 36.6978 8.30223C35.849 7.45344 34.8413 6.78015 33.7323 6.32079C32.6233 5.86143 31.4347 5.625 30.2344 5.625ZM37.9688 30.2344C37.9688 32.2857 37.1539 34.2529 35.7034 35.7034C34.2529 37.1539 32.2857 37.9688 30.2344 37.9688H14.7656C12.7143 37.9688 10.7471 37.1539 9.2966 35.7034C7.84612 34.2529 7.03125 32.2857 7.03125 30.2344V14.7656C7.03125 12.7143 7.84612 10.7471 9.2966 9.2966C10.7471 7.84612 12.7143 7.03125 14.7656 7.03125H30.2344C32.2857 7.03125 34.2529 7.84612 35.7034 9.2966C37.1539 10.7471 37.9688 12.7143 37.9688 14.7656V30.2344ZM33.0469 13.3594C33.0469 13.6375 32.9644 13.9094 32.8099 14.1406C32.6554 14.3719 32.4357 14.5521 32.1788 14.6586C31.9218 14.765 31.6391 14.7929 31.3663 14.7386C31.0935 14.6843 30.8429 14.5504 30.6463 14.3537C30.4496 14.1571 30.3157 13.9065 30.2614 13.6337C30.2071 13.3609 30.235 13.0782 30.3414 12.8212C30.4479 12.5643 30.6281 12.3446 30.8594 12.1901C31.0906 12.0356 31.3625 11.9531 31.6406 11.9531C32.0136 11.9531 32.3713 12.1013 32.635 12.365C32.8987 12.6287 33.0469 12.9864 33.0469 13.3594Z" fill="black"/>
</svg>
