<svg width="22" height="22" viewBox="0 0 22 22" fill="none" xmlns="http://www.w3.org/2000/svg">
<path d="M16.8147 13.6292C16.4636 12.2413 15.7047 11.0174 14.6543 10.1452C13.604 9.27294 12.3202 8.8006 11 8.8006C9.67976 8.8006 8.396 9.27294 7.34564 10.1452C6.29528 11.0174 5.53635 12.2413 5.18527 13.6292L4.34863 16.9365C4.19841 17.5304 4.176 18.154 4.28314 18.7588C4.39028 19.3637 4.62408 19.9333 4.96631 20.4234C5.30853 20.9135 5.74994 21.3108 6.25611 21.5842C6.76227 21.8577 7.31953 22 7.88441 22H14.1156C14.6805 22 15.2377 21.8577 15.7439 21.5842C16.25 21.3108 16.6914 20.9135 17.0337 20.4234C17.3759 19.9333 17.6097 19.3637 17.7168 18.7588C17.824 18.154 17.8016 17.5304 17.6513 16.9365L16.8147 13.6292ZM15.8665 19.4539C15.662 19.7491 15.3974 19.9882 15.0935 20.1524C14.7896 20.3167 14.4547 20.4015 14.1156 20.4001H7.88441C7.54547 20.4001 7.21112 20.3147 6.90741 20.1506C6.6037 19.9865 6.33886 19.7482 6.13352 19.4541C5.92818 19.1601 5.7879 18.8183 5.72361 18.4554C5.65933 18.0925 5.67278 17.7183 5.76292 17.362L6.59956 14.0547C6.86525 13.0044 7.43959 12.0781 8.23448 11.4181C9.02936 10.758 10.0009 10.4005 11 10.4005C11.9991 10.4005 12.9706 10.758 13.7655 11.4181C14.5604 12.0781 15.1347 13.0044 15.4004 14.0547L16.2371 17.362C16.3285 17.7181 16.3426 18.0926 16.2783 18.4558C16.214 18.8189 16.073 19.1607 15.8665 19.4541V19.4539ZM5.96126 9.91607C6.0889 9.04611 5.91962 8.11481 5.48443 7.29305C5.04924 6.47129 4.39416 5.84577 3.63963 5.53133C2.8316 5.1948 2.00743 5.24839 1.31815 5.68217C-0.0521232 6.54493 -0.41272 8.67128 0.514471 10.4222C0.949526 11.244 1.60465 11.8696 2.35918 12.1839C2.69342 12.326 3.04869 12.4 3.40741 12.4025C3.85431 12.4042 4.29366 12.2767 4.68066 12.033C5.36954 11.5992 5.82435 10.8474 5.96126 9.91607ZM4.51245 9.66318C4.44688 10.1096 4.24607 10.4591 3.947 10.6474C3.64793 10.8357 3.26996 10.8505 2.88254 10.6893C2.4418 10.5057 2.052 10.1268 1.78488 9.62224C1.27138 8.65228 1.39343 7.48234 2.05172 7.06776C2.21721 6.96535 2.40462 6.91259 2.59489 6.91487C2.77336 6.91688 2.95 6.95444 3.11609 7.02571C3.55683 7.20935 3.94663 7.58828 4.21375 8.09281C4.48086 8.59733 4.58691 9.15516 4.51245 9.66318ZM6.12016 6.60158C6.64109 7.05571 7.23598 7.2922 7.83755 7.29215C8.01775 7.29209 8.19741 7.27095 8.37347 7.2291C9.91962 6.86257 10.8571 4.95706 10.4632 2.9814C10.2785 2.05415 9.82925 1.24063 9.19838 0.69061C8.5228 0.101638 7.72257 -0.121301 6.94507 0.0630903C5.39897 0.429573 4.46151 2.33508 4.8553 4.31074C5.04012 5.23804 5.48934 6.05156 6.12016 6.60158ZM7.25665 1.62652C7.32795 1.60975 7.40068 1.60137 7.47361 1.60152C7.74631 1.60152 8.02682 1.71786 8.28224 1.94055C8.65072 2.26179 8.91613 2.75221 9.02956 3.32154C9.2478 4.41623 8.80463 5.48983 8.06184 5.66592C7.72435 5.74592 7.36013 5.63453 7.03635 5.35219C6.66787 5.0309 6.40245 4.54048 6.28902 3.9712C6.07074 2.87621 6.51391 1.80261 7.25665 1.62652ZM20.6818 5.68217C19.9928 5.24839 19.1682 5.1948 18.3603 5.53133C17.6058 5.84567 16.9507 6.47129 16.5156 7.29305C16.0806 8.11481 15.9113 9.04631 16.0388 9.91607C16.1755 10.8474 16.6303 11.5992 17.3194 12.033C17.7064 12.2768 18.1458 12.4042 18.5927 12.4025C18.9514 12.4 19.3067 12.326 19.6409 12.1839C20.3954 11.8696 21.0505 11.244 21.4856 10.4222C22.4127 8.67128 22.0521 6.54493 20.6818 5.68217ZM20.2151 9.62224C19.948 10.1268 19.5582 10.5057 19.1174 10.6893C18.7302 10.8507 18.3521 10.8358 18.0531 10.6474C17.754 10.459 17.5533 10.1096 17.4876 9.66318C17.4131 9.15516 17.5191 8.59754 17.7862 8.09326C18.0534 7.58898 18.4431 7.2098 18.8839 7.02616C19.05 6.95483 19.2266 6.9172 19.4051 6.91511C19.5954 6.91284 19.7828 6.9656 19.9483 7.06801C20.6065 7.48224 20.7287 8.65203 20.2151 9.62224ZM13.6265 7.2291C13.8026 7.27095 13.9822 7.29209 14.1624 7.29215C14.764 7.29215 15.3591 7.05571 15.8798 6.60158C16.5106 6.05161 16.9599 5.23804 17.1447 4.31079C17.5385 2.33513 16.601 0.429623 15.0549 0.0631402C14.2775 -0.121151 13.4772 0.101638 12.8016 0.69066C12.1707 1.24063 11.7215 2.0542 11.5367 2.9814C11.1429 4.95706 12.0804 6.86257 13.6265 7.2291ZM12.9704 3.32129C13.0838 2.75196 13.3493 2.26134 13.7177 1.9403C13.9732 1.71761 14.2537 1.60127 14.5264 1.60127C14.5993 1.60112 14.672 1.6095 14.7433 1.62627C15.4861 1.80236 15.9292 2.87621 15.711 3.97066C15.5975 4.53998 15.3321 5.0306 14.9637 5.35169C14.64 5.63398 14.276 5.74537 13.9382 5.66542C13.1953 5.48958 12.7522 4.41583 12.9704 3.32129Z" fill="black"/>
</svg>
