<svg width="22" height="22" viewBox="0 0 22 22" fill="none" xmlns="http://www.w3.org/2000/svg">
<g clip-path="url(#clip0_179_53)">
<path d="M11.7081 1.40113C11.4725 1.38373 11.2363 1.37501 11 1.375V0C11.2702 0.000131763 11.5404 0.0102219 11.8099 0.03025L11.7081 1.40113ZM14.4636 2.01988C14.0229 1.84979 13.5702 1.71238 13.1093 1.60875L13.4104 0.26675C13.937 0.385 14.4554 0.54175 14.9586 0.737L14.4636 2.01988ZM16.3474 2.99612C16.1508 2.86502 15.9494 2.74118 15.7437 2.62488L16.4216 1.42863C16.8917 1.69501 17.3417 1.99557 17.7677 2.32787L16.9221 3.41275C16.7357 3.26732 16.544 3.12881 16.3474 2.9975V2.99612ZM18.8691 5.45738C18.5971 5.07097 18.297 4.70514 17.9712 4.36287L18.9667 3.41412C19.338 3.806 19.6818 4.22537 19.9939 4.66537L18.8691 5.45738ZM19.8921 7.31638C19.8019 7.09838 19.7037 6.88374 19.5979 6.67288L20.8258 6.05412C21.0686 6.53687 21.2754 7.0369 21.4445 7.55013L20.1383 7.9805C20.0644 7.75619 19.9823 7.53467 19.8921 7.31638ZM20.6209 10.7635C20.6098 10.291 20.5638 9.8199 20.4834 9.35413L21.8377 9.12037C21.9299 9.65112 21.9835 10.1901 21.9973 10.7291L20.6223 10.7635H20.6209ZM20.4408 12.8783C20.4861 12.6445 20.5232 12.4121 20.5521 12.177L21.9175 12.3461C21.8515 12.8826 21.7458 13.4134 21.6012 13.9342L20.2758 13.5671C20.339 13.3402 20.394 13.1106 20.4408 12.8783ZM19.1317 16.1494C19.3847 15.7506 19.6075 15.3326 19.8 14.9009L21.0568 15.4577C20.8368 15.9527 20.5824 16.4285 20.2936 16.885L19.1317 16.1494ZM17.8062 17.8062C17.974 17.6385 18.1349 17.4653 18.2875 17.2865L19.3297 18.1844C19.1532 18.389 18.9693 18.5872 18.7784 18.7784L17.8062 17.8062Z" fill="black"/>
<path d="M11 1.375C9.41723 1.37511 7.8589 1.76556 6.46304 2.51177C5.06719 3.25797 3.8769 4.33689 2.9976 5.65297C2.1183 6.96905 1.57714 8.48166 1.42204 10.0568C1.26694 11.632 1.50269 13.2211 2.10842 14.6834C2.71414 16.1457 3.67114 17.4361 4.89465 18.4402C6.11816 19.4443 7.57041 20.1312 9.12278 20.44C10.6752 20.7488 12.2797 20.6701 13.7944 20.2107C15.309 19.7512 16.687 18.9254 17.8063 17.8062L18.7784 18.7784C17.4993 20.0582 15.9242 21.0028 14.1928 21.5284C12.4614 22.054 10.6271 22.1444 8.85236 21.7917C7.07764 21.4389 5.41733 20.6539 4.01853 19.5061C2.61973 18.3583 1.52563 16.8832 0.833183 15.2115C0.140731 13.5398 -0.128696 11.7231 0.0487721 9.92237C0.22624 8.12166 0.845125 6.39251 1.85059 4.88815C2.85606 3.38379 4.21706 2.15065 5.81301 1.298C7.40896 0.445356 9.19059 -0.000479507 11 3.87005e-07V1.375Z" fill="black"/>
<path d="M10.3125 4.125C10.4948 4.125 10.6697 4.19743 10.7986 4.32636C10.9276 4.4553 11 4.63016 11 4.8125V11.9763L15.466 14.5282C15.6197 14.621 15.7311 14.7702 15.7762 14.9439C15.8214 15.1176 15.7969 15.3022 15.7078 15.458C15.6187 15.6139 15.4722 15.7287 15.2996 15.778C15.127 15.8273 14.9419 15.8071 14.784 15.7218L9.9715 12.9718C9.86628 12.9116 9.77881 12.8248 9.71796 12.72C9.65711 12.6152 9.62504 12.4962 9.625 12.375V4.8125C9.625 4.63016 9.69743 4.4553 9.82636 4.32636C9.9553 4.19743 10.1302 4.125 10.3125 4.125Z" fill="black"/>
</g>
<defs>
<clipPath id="clip0_179_53">
<rect width="22" height="22" fill="white"/>
</clipPath>
</defs>
</svg>
