<svg width="40" height="40" viewBox="0 0 40 40" fill="none" xmlns="http://www.w3.org/2000/svg">
<circle cx="20" cy="20" r="20" fill="#151616" fill-opacity="0.51"/>
<path d="M22.7398 30.4802C22.5161 30.481 22.2951 30.4316 22.093 30.3357C21.891 30.2399 21.7129 30.1 21.572 29.9263L14.3407 20.9432C14.1204 20.6753 14.0001 20.3393 14.0001 19.9925C14.0001 19.6457 14.1204 19.3097 14.3407 19.0418L21.8265 10.0587C22.0807 9.75299 22.4458 9.56072 22.8417 9.52422C23.2376 9.48772 23.6318 9.60998 23.9375 9.86411C24.2433 10.1182 24.4356 10.4834 24.4721 10.8793C24.5086 11.2752 24.3863 11.6694 24.1322 11.9751L17.4398 20L23.9076 28.0248C24.0907 28.2446 24.207 28.5122 24.2427 28.796C24.2785 29.0798 24.2322 29.3679 24.1093 29.6262C23.9865 29.8845 23.7922 30.1022 23.5495 30.2535C23.3068 30.4049 23.0258 30.4836 22.7398 30.4802Z" fill="white"/>
</svg>
