<svg width="40" height="40" viewBox="0 0 40 40" fill="none" xmlns="http://www.w3.org/2000/svg">
<circle cx="20" cy="20" r="20" fill="#151616" fill-opacity="0.5"/>
<path d="M17.0057 30.4802C16.6558 30.4809 16.3168 30.359 16.0475 30.1358C15.8959 30.0101 15.7705 29.8558 15.6787 29.6816C15.5868 29.5074 15.5302 29.3168 15.5122 29.1207C15.4941 28.9246 15.5149 28.7269 15.5733 28.5388C15.6318 28.3508 15.7268 28.1761 15.8528 28.0248L22.5602 20L16.0924 11.9601C15.968 11.807 15.8751 11.6308 15.8191 11.4416C15.7631 11.2525 15.745 11.0541 15.7658 10.8579C15.7867 10.6618 15.8461 10.4716 15.9407 10.2985C16.0353 10.1254 16.1632 9.97266 16.317 9.8491C16.4719 9.71281 16.6533 9.61 16.8498 9.54713C17.0463 9.48427 17.2537 9.4627 17.459 9.48379C17.6642 9.50488 17.8629 9.56816 18.0425 9.66968C18.2222 9.77119 18.3789 9.90873 18.5028 10.0737L25.7342 19.0567C25.9544 19.3246 26.0748 19.6607 26.0748 20.0074C26.0748 20.3542 25.9544 20.6903 25.7342 20.9581L18.2483 29.9412C18.0981 30.1224 17.9073 30.2656 17.6914 30.3593C17.4755 30.4529 17.2406 30.4943 17.0057 30.4802Z" fill="white"/>
</svg>
