<svg width="22" height="22" viewBox="0 0 22 22" fill="none" xmlns="http://www.w3.org/2000/svg">
<path d="M20.57 11.4194L18.5075 6.60687C18.4549 6.48261 18.3668 6.37658 18.2544 6.30201C18.1419 6.22743 18.01 6.18761 17.875 6.1875H15.8125V4.8125C15.8125 4.63016 15.7401 4.4553 15.6111 4.32636C15.4822 4.19743 15.3073 4.125 15.125 4.125H2.0625C1.88016 4.125 1.7053 4.19743 1.57636 4.32636C1.44743 4.4553 1.375 4.63016 1.375 4.8125V16.5C1.375 16.6823 1.44743 16.8572 1.57636 16.9861C1.7053 17.1151 1.88016 17.1875 2.0625 17.1875H3.53375C3.69207 17.7701 4.03769 18.2843 4.51729 18.651C4.99688 19.0177 5.5838 19.2163 6.1875 19.2163C6.7912 19.2163 7.37812 19.0177 7.85771 18.651C8.33731 18.2843 8.68293 17.7701 8.84125 17.1875H13.1587C13.3171 17.7701 13.6627 18.2843 14.1423 18.651C14.6219 19.0177 15.2088 19.2163 15.8125 19.2163C16.4162 19.2163 17.0031 19.0177 17.4827 18.651C17.9623 18.2843 18.3079 17.7701 18.4663 17.1875H19.9375C20.1198 17.1875 20.2947 17.1151 20.4236 16.9861C20.5526 16.8572 20.625 16.6823 20.625 16.5V11.6875C20.6248 11.5953 20.6061 11.5042 20.57 11.4194ZM15.8125 7.5625H17.4212L18.8925 11H15.8125V7.5625ZM6.1875 17.875C5.91555 17.875 5.64971 17.7944 5.42359 17.6433C5.19747 17.4922 5.02124 17.2774 4.91717 17.0262C4.8131 16.7749 4.78587 16.4985 4.83892 16.2318C4.89197 15.965 5.02293 15.72 5.21523 15.5277C5.40753 15.3354 5.65253 15.2045 5.91925 15.1514C6.18597 15.0984 6.46244 15.1256 6.71369 15.2297C6.96494 15.3337 7.17968 15.51 7.33077 15.7361C7.48186 15.9622 7.5625 16.2281 7.5625 16.5C7.5625 16.8647 7.41763 17.2144 7.15977 17.4723C6.90191 17.7301 6.55217 17.875 6.1875 17.875ZM13.1587 15.8125H8.84125C8.68293 15.2299 8.33731 14.7157 7.85771 14.349C7.37812 13.9823 6.7912 13.7837 6.1875 13.7837C5.5838 13.7837 4.99688 13.9823 4.51729 14.349C4.03769 14.7157 3.69207 15.2299 3.53375 15.8125H2.75V5.5H14.4375V14.135C14.1244 14.3167 13.8503 14.5584 13.6309 14.8463C13.4115 15.1341 13.251 15.4625 13.1587 15.8125ZM15.8125 17.875C15.5406 17.875 15.2747 17.7944 15.0486 17.6433C14.8225 17.4922 14.6462 17.2774 14.5422 17.0262C14.4381 16.7749 14.4109 16.4985 14.4639 16.2318C14.517 15.965 14.6479 15.72 14.8402 15.5277C15.0325 15.3354 15.2775 15.2045 15.5443 15.1514C15.811 15.0984 16.0874 15.1256 16.3387 15.2297C16.5899 15.3337 16.8047 15.51 16.9558 15.7361C17.1069 15.9622 17.1875 16.2281 17.1875 16.5C17.1875 16.8647 17.0426 17.2144 16.7848 17.4723C16.5269 17.7301 16.1772 17.875 15.8125 17.875ZM19.25 15.8125H18.4663C18.3142 15.2237 17.9713 14.7018 17.4911 14.3287C17.011 13.9555 16.4206 13.752 15.8125 13.75V12.375H19.25V15.8125Z" fill="black"/>
</svg>
